<?xml version="1.0" encoding="UTF-8" standalone="no"?>
<!-- Created with Inkscape (http://www.inkscape.org/) -->

<svg
   width="2.5in"
   height="0.94999999in"
   viewBox="0 0 63.499999 24.13"
   version="1.1"
   id="svg1"
   inkscape:version="1.3.2 (091e20e, 2023-11-25, custom)"
   sodipodi:docname="logo.svg"
   xmlns:inkscape="http://www.inkscape.org/namespaces/inkscape"
   xmlns:sodipodi="http://sodipodi.sourceforge.net/DTD/sodipodi-0.dtd"
   xmlns="http://www.w3.org/2000/svg"
   xmlns:svg="http://www.w3.org/2000/svg">
  <sodipodi:namedview
     id="namedview1"
     pagecolor="#505050"
     bordercolor="#eeeeee"
     borderopacity="1"
     inkscape:showpageshadow="0"
     inkscape:pageopacity="0"
     inkscape:pagecheckerboard="0"
     inkscape:deskcolor="#d1d1d1"
     inkscape:document-units="mm"
     inkscape:zoom="2.1694726"
     inkscape:cx="66.83652"
     inkscape:cy="100.25478"
     inkscape:window-width="1827"
     inkscape:window-height="1046"
     inkscape:window-x="82"
     inkscape:window-y="-11"
     inkscape:window-maximized="1"
     inkscape:current-layer="layer1" />
  <defs
     id="defs1">
    <rect
       x="115.05501"
       y="147.32256"
       width="252.92545"
       height="49.216164"
       id="rect4" />
    <rect
       x="118.64029"
       y="145.04102"
       width="236.95465"
       height="31.615683"
       id="rect3" />
    <rect
       x="111.46972"
       y="71.705673"
       width="379.38818"
       height="176.65669"
       id="rect2" />
    <rect
       x="106.25477"
       y="68.44632"
       width="431.53778"
       height="170.78987"
       id="rect1" />
  </defs>
  <g
     inkscape:label="Layer 1"
     inkscape:groupmode="layer"
     id="layer1"
     transform="translate(-30.915172,-19.423371)">
    <path
       id="text4"
       style="font-size:37.3333px;line-height:0;font-family:'Open Sans';-inkscape-font-specification:'Open Sans';white-space:pre;shape-inside:url(#rect4);display:inline;fill:#ffffff;stroke-width:0.264583"
       d="m 65.809166,39.100723 c -0.05926,0 -0.108865,0.0186 -0.148828,0.05581 -0.03859,0.03583 -0.05788,0.09233 -0.05788,0.169499 0,0.07579 0.01929,0.13229 0.05788,0.169499 0.03996,0.03721 0.08957,0.05581 0.148828,0.05581 0.0565,0 0.104731,-0.0186 0.144694,-0.05581 0.04134,-0.03721 0.06201,-0.09371 0.06201,-0.169499 0,-0.07717 -0.02067,-0.133672 -0.06201,-0.169499 -0.03996,-0.03721 -0.08819,-0.05581 -0.144694,-0.05581 z m -7.685319,0.806152 c -0.09646,0 -0.187412,0.01378 -0.272852,0.04134 -0.08544,0.02756 -0.162607,0.06822 -0.23151,0.121957 -0.0689,0.05374 -0.126092,0.11989 -0.171566,0.198437 h -0.0186 l -0.05168,-0.320394 h -0.276986 v 2.265495 h 0.343132 v -1.198893 c 0,-0.177766 0.01998,-0.327283 0.05994,-0.448551 0.04134,-0.122645 0.107487,-0.214976 0.198437,-0.276986 0.09095,-0.06201 0.211528,-0.09302 0.361735,-0.09302 0.106108,0 0.193613,0.02067 0.262516,0.06201 0.07028,0.03996 0.122646,0.100597 0.157097,0.181901 0.03583,0.0813 0.05374,0.18328 0.05374,0.305924 v 1.467611 h 0.341065 v -1.267106 c 0,-0.246668 0.04961,-0.433392 0.148828,-0.560172 0.09922,-0.126777 0.258383,-0.19017 0.47749,-0.19017 0.155718,0 0.272851,0.04616 0.3514,0.138493 0.07993,0.09095 0.119889,0.228065 0.119889,0.411344 v 1.467611 h 0.338997 v -1.484147 c 0,-0.288009 -0.06339,-0.496781 -0.190169,-0.626318 -0.126777,-0.130913 -0.314881,-0.196371 -0.564306,-0.196371 -0.154339,0 -0.296279,0.03238 -0.425814,0.09715 -0.129537,0.06339 -0.231513,0.160542 -0.305925,0.291455 h -0.0186 c -0.05236,-0.130913 -0.137117,-0.228063 -0.254248,-0.291455 -0.115755,-0.06477 -0.259761,-0.09715 -0.432015,-0.09715 z m 6.190836,0 c -0.252179,0 -0.456131,0.05168 -0.611849,0.15503 -0.154338,0.101975 -0.23151,0.248738 -0.23151,0.440283 0,0.125402 0.02825,0.227377 0.08475,0.305924 0.05788,0.07855 0.13918,0.145382 0.243913,0.200505 0.106108,0.05374 0.231512,0.108176 0.376204,0.163297 0.146073,0.05374 0.26045,0.103354 0.343132,0.148828 0.08268,0.0441 0.141248,0.09026 0.1757,0.138493 0.03583,0.04686 0.05374,0.101287 0.05374,0.163298 0,0.108865 -0.0441,0.194993 -0.132291,0.258382 -0.0882,0.06339 -0.230134,0.09508 -0.425814,0.09508 -0.13367,0 -0.264585,-0.01861 -0.392741,-0.05581 -0.128159,-0.03721 -0.238403,-0.07855 -0.330729,-0.124023 v 0.316259 c 0.08682,0.04548 0.188102,0.08062 0.303857,0.10542 0.115756,0.02481 0.252871,0.03721 0.411345,0.03721 0.186033,0 0.345887,-0.02481 0.479557,-0.07441 0.135048,-0.04961 0.238399,-0.123335 0.310059,-0.221175 0.07303,-0.09922 0.109554,-0.221174 0.109554,-0.365869 0,-0.124021 -0.02825,-0.225311 -0.08475,-0.303857 -0.05512,-0.07993 -0.134359,-0.147448 -0.237711,-0.202572 -0.103354,-0.0565 -0.225999,-0.110932 -0.367937,-0.163298 -0.141935,-0.05374 -0.256316,-0.100594 -0.343131,-0.140559 -0.08682,-0.03996 -0.150206,-0.08268 -0.190169,-0.128158 -0.03859,-0.04548 -0.05788,-0.103354 -0.05788,-0.173633 0,-0.09095 0.04203,-0.162607 0.126091,-0.214974 0.08544,-0.05237 0.207397,-0.07855 0.365869,-0.07855 0.110244,0 0.218417,0.01378 0.324528,0.04134 0.106108,0.02756 0.206016,0.06133 0.299723,0.101286 l 0.115755,-0.274919 c -0.103355,-0.04547 -0.214972,-0.0813 -0.334863,-0.107487 -0.118509,-0.02756 -0.245981,-0.04134 -0.382406,-0.04134 z m 3.327963,0 c -0.20533,0 -0.388609,0.04203 -0.549838,0.126091 -0.161229,0.08406 -0.288009,0.213596 -0.380338,0.388606 -0.09095,0.173633 -0.136426,0.397564 -0.136426,0.671794 0,0.261827 0.04341,0.478869 0.130225,0.651123 0.08682,0.172254 0.208084,0.300412 0.363802,0.384473 0.155718,0.08406 0.33555,0.12609 0.539502,0.12609 0.128156,0 0.2384,-0.01035 0.330729,-0.03101 0.0937,-0.02067 0.178455,-0.0503 0.254248,-0.08888 v -0.305924 c -0.07855,0.03445 -0.166056,0.06477 -0.262516,0.09095 -0.09647,0.02481 -0.204639,0.03721 -0.324528,0.03721 -0.150204,0 -0.275608,-0.03376 -0.376205,-0.101286 -0.09922,-0.0689 -0.174324,-0.168118 -0.225309,-0.297656 -0.04961,-0.129534 -0.07441,-0.285943 -0.07441,-0.469222 0,-0.191545 0.02549,-0.352779 0.07648,-0.483691 0.05236,-0.130914 0.130227,-0.230132 0.233577,-0.297657 0.10473,-0.06752 0.235645,-0.101285 0.392741,-0.101285 0.07855,0 0.162609,0.01102 0.252181,0.03307 0.09095,0.02205 0.170876,0.04686 0.239779,0.07442 l 0.103353,-0.287321 c -0.06752,-0.03445 -0.15434,-0.0627 -0.260449,-0.08475 -0.10473,-0.02343 -0.213598,-0.03514 -0.326595,-0.03514 z m -6.647657,0.04134 v 1.484148 c 0,0.190168 0.03032,0.345889 0.09095,0.467154 0.06201,0.121269 0.15365,0.21084 0.274918,0.268718 0.121266,0.05788 0.271475,0.08682 0.450619,0.08682 0.104733,0 0.20326,-0.01378 0.295589,-0.04134 0.09371,-0.02618 0.177767,-0.06615 0.252181,-0.119889 0.07441,-0.05374 0.135046,-0.119891 0.181901,-0.198438 h 0.0186 l 0.04961,0.318327 h 0.28112 v -2.265495 h -0.345199 v 1.192692 c 0,0.179144 -0.02205,0.330729 -0.06615,0.454753 -0.0441,0.122645 -0.116444,0.215665 -0.217041,0.279053 -0.09922,0.06339 -0.232888,0.09508 -0.401009,0.09508 -0.175009,0 -0.305234,-0.04616 -0.390674,-0.138492 -0.08544,-0.0937 -0.128157,-0.234956 -0.128157,-0.423747 v -1.459343 z m 4.638477,0 v 2.265495 h 0.343131 v -2.265495 z" />
    <path
       id="text2"
       style="font-size:85.3333px;line-height:1.05;font-family:'Open Sans';-inkscape-font-specification:'Open Sans';letter-spacing:-4px;word-spacing:0px;white-space:pre;shape-inside:url(#rect2);display:inline;fill:#ffffff;stroke-width:0.264583"
       d="m 31.059349,19.423371 v 18.287773 h 2.551266 v -8.556585 h 3.499527 V 27.347952 H 33.610615 V 21.2522 h 4.515488 v -1.828829 z m 7.769553,0 v 18.287773 h 2.551266 v -8.579321 h 1.986441 l 2.393651,8.579321 h 2.460834 l -2.596742,-9.166365 c 0.541867,-0.180623 0.978858,-0.466482 1.309997,-0.857829 0.331142,-0.4064 0.571918,-0.895642 0.722437,-1.467611 0.150519,-0.587022 0.225827,-1.234565 0.225827,-1.942001 0,-1.158991 -0.195696,-2.091876 -0.587044,-2.799312 -0.376296,-0.722488 -0.963385,-1.241956 -1.761133,-1.558045 -0.797748,-0.33114 -1.806459,-0.49661 -3.025656,-0.49661 z m 13.549043,0 -3.882967,18.287773 h 2.393135 l 0.880568,-4.605404 h 3.725354 l 0.835091,4.605404 H 58.745 L 54.839295,19.423371 Z m 7.160286,0 v 18.287773 h 2.551266 v -6.456971 l 1.174088,-2.12235 3.499528,8.579321 h 2.483569 l -4.199741,-10.227283 3.525366,-7.86567 v 1.701705 h 3.092834 v 16.391248 h 2.551266 V 21.319896 h 3.002917 v -1.896525 h -8.559686 -2.370913 l -4.199228,8.624796 v -8.624796 z m 20.348112,0 -3.883483,18.287773 h 2.393135 l 0.880568,-4.605404 h 3.725354 l 0.835607,4.605404 h 2.415874 L 82.347177,19.423371 Z m 7.15977,0 v 18.287773 h 7.224882 v -1.828829 h -4.6731 V 19.423371 Z M 41.380168,21.2522 h 1.128612 c 1.158991,0 1.934091,0.240778 2.325439,0.722436 0.391348,0.466607 0.587044,1.234022 0.587044,2.302702 0,0.782695 -0.105016,1.392326 -0.315743,1.828829 -0.210725,0.436505 -0.542182,0.745419 -0.993735,0.926042 -0.451557,0.180623 -1.038646,0.270785 -1.761133,0.270785 h -0.970484 z m 12.239561,1.78387 1.535309,8.240841 h -3.047876 z m 27.508398,0 1.535309,8.240841 H 79.61556 Z" />
  </g>
</svg>
